# Blender v2.82 (sub 7) OBJ File: 'cubewithhole.blend'
# www.blender.org
o Cube
v 1.000000 1.000000 -1.000000
v 1.000000 -1.000000 -1.000000
v 1.000000 1.000000 1.000000
v 1.000000 -1.000000 1.000000
v -1.000000 1.000000 -1.000000
v -1.000000 -1.000000 -1.000000
v -1.000000 1.000000 1.000000
v -1.000000 -1.000000 1.000000
v -0.490393 0.097546 1.000000
v -0.490393 0.097546 -1.000000
v -0.461940 0.191342 1.000000
v -0.461940 0.191342 -1.000000
v 0.277785 0.415735 1.000000
v 0.277785 0.415735 -1.000000
v 0.191342 0.461940 1.000000
v 0.191342 0.461940 -1.000000
v -0.500000 0.000000 1.000000
v -0.500000 0.000001 -1.000000
v 0.097545 0.490393 1.000000
v 0.097545 0.490393 -1.000000
v 0.415735 0.277785 1.000000
v 0.415735 0.277785 -1.000000
v 0.353553 0.353553 1.000000
v 0.353553 0.353553 -1.000000
v 0.353553 -0.353553 1.000000
v 0.353553 -0.353553 -1.000000
v 0.277785 -0.415735 1.000000
v 0.277785 -0.415735 -1.000000
v 0.461940 0.191342 1.000000
v 0.461940 0.191342 -1.000000
v -0.097545 -0.490393 1.000000
v -0.097545 -0.490393 -1.000000
v -0.490393 -0.097545 1.000000
v -0.490393 -0.097545 -1.000000
v -0.277785 0.415735 1.000000
v -0.277785 0.415735 -1.000000
v -0.191342 -0.461940 1.000000
v -0.191342 -0.461940 -1.000000
v 0.461940 -0.191342 1.000000
v 0.461940 -0.191342 -1.000000
v 0.490393 -0.097545 1.000000
v 0.490393 -0.097545 -1.000000
v 0.415735 -0.277785 1.000000
v 0.415735 -0.277785 -1.000000
v 0.500000 -0.000000 1.000000
v 0.500000 0.000000 -1.000000
v -0.415734 0.277786 1.000000
v -0.415734 0.277786 -1.000000
v -0.353553 0.353554 1.000000
v -0.353553 0.353554 -1.000000
v -0.191341 0.461940 1.000000
v -0.191341 0.461940 -1.000000
v 0.000000 0.500000 1.000000
v 0.000000 0.500000 -1.000000
v 0.097545 -0.490393 1.000000
v 0.097545 -0.490393 -1.000000
v 0.490393 0.097545 1.000000
v 0.490393 0.097545 -1.000000
v 0.191342 -0.461940 1.000000
v 0.191342 -0.461940 -1.000000
v -0.415735 -0.277785 1.000000
v -0.415735 -0.277785 -1.000000
v -0.353554 -0.353553 1.000000
v -0.353554 -0.353553 -1.000000
v -0.461940 -0.191341 1.000000
v -0.461940 -0.191341 -1.000000
v -0.277785 -0.415735 1.000000
v -0.277785 -0.415735 -1.000000
v -0.000000 -0.500000 1.000000
v -0.000000 -0.500000 -1.000000
v -0.097544 0.490393 1.000000
v -0.097544 0.490393 -1.000000
vt 0.875000 0.500000
vt 0.625000 0.750000
vt 0.625000 0.500000
vt 0.437500 0.875000
vt 0.438701 0.887193
vt 0.375000 1.000000
vt 0.625000 0.000000
vt 0.375000 0.250000
vt 0.375000 0.000000
vt 0.375000 0.500000
vt 0.125000 0.750000
vt 0.125000 0.500000
vt 0.375000 0.750000
vt 0.437500 0.375000
vt 0.438701 0.387193
vt 0.718750 0.958333
vt 0.750000 0.541667
vt 0.718750 0.541667
vt 0.625000 0.958333
vt 0.656250 0.541667
vt 0.625000 0.541667
vt 0.656250 0.958333
vt 0.687500 0.541667
vt 0.218750 0.958333
vt 0.250000 0.541667
vt 0.218750 0.541667
vt 0.781250 0.958333
vt 0.812500 0.541667
vt 0.781250 0.541667
vt 0.750000 0.958333
vt 0.843750 0.958333
vt 0.875000 0.541667
vt 0.843750 0.541667
vt 0.000000 0.958333
vt 0.031250 0.541667
vt 0.000000 0.541667
vt 0.468750 0.958333
vt 0.500000 0.541667
vt 0.468750 0.541667
vt 0.156250 0.958333
vt 0.187500 0.541667
vt 0.156250 0.541667
vt 0.531250 0.958333
vt 0.531250 0.541667
vt 0.031250 0.958333
vt 0.062500 0.541667
vt 0.875000 0.958333
vt 0.906250 0.541667
vt 0.406250 0.958333
vt 0.437500 0.541667
vt 0.406250 0.541667
vt 0.906250 0.958333
vt 0.937500 0.541667
vt 0.593750 0.958333
vt 0.593750 0.541667
vt 0.093750 0.958333
vt 0.125000 0.541667
vt 0.093750 0.541667
vt 0.187500 0.958333
vt 0.562500 0.875000
vt 0.561299 0.862807
vt 0.375000 0.958333
vt 0.375000 0.541667
vt 0.562500 0.958333
vt 0.562500 0.541667
vt 0.312500 0.958333
vt 0.343750 0.541667
vt 0.312500 0.541667
vt 0.968750 0.958333
vt 1.000000 0.541667
vt 0.968750 0.541667
vt 0.812500 0.958333
vt 0.250000 0.958333
vt 0.281250 0.541667
vt 0.687500 0.958333
vt 0.437500 0.958333
vt 0.062500 0.958333
vt 0.937500 0.958333
vt 0.281250 0.958333
vt 0.125000 0.958333
vt 0.562500 0.375000
vt 0.561299 0.362807
vt 0.625000 0.250000
vt 0.343750 0.958333
vt 0.875000 0.750000
vt 0.500000 0.812500
vt 0.487807 0.813701
vt 0.500000 0.937500
vt 0.625000 1.000000
vt 0.487807 0.936299
vt 0.476082 0.817258
vt 0.465277 0.823033
vt 0.476082 0.932742
vt 0.465277 0.926967
vt 0.455806 0.830806
vt 0.448033 0.840277
vt 0.455806 0.919194
vt 0.448033 0.909723
vt 0.442258 0.851082
vt 0.438701 0.862807
vt 0.442258 0.898918
vt 0.500000 0.312500
vt 0.487807 0.313701
vt 0.500000 0.437500
vt 0.487807 0.436299
vt 0.476082 0.317258
vt 0.465277 0.323033
vt 0.476082 0.432742
vt 0.465277 0.426967
vt 0.455806 0.330806
vt 0.448033 0.340277
vt 0.455806 0.419194
vt 0.448033 0.409723
vt 0.442258 0.351082
vt 0.438701 0.362807
vt 0.442258 0.398918
vt 0.500000 0.958333
vt 0.512193 0.936299
vt 0.523918 0.932742
vt 0.512193 0.813701
vt 0.523918 0.817258
vt 0.534723 0.926967
vt 0.544194 0.919194
vt 0.534723 0.823033
vt 0.544194 0.830806
vt 0.551967 0.909723
vt 0.557742 0.898918
vt 0.551967 0.840277
vt 0.557742 0.851082
vt 0.561299 0.887193
vt 1.000000 0.958333
vt 0.512193 0.436299
vt 0.523918 0.432742
vt 0.512193 0.313701
vt 0.523918 0.317258
vt 0.534723 0.426967
vt 0.544194 0.419194
vt 0.534723 0.323033
vt 0.544194 0.330806
vt 0.551967 0.409723
vt 0.557742 0.398918
vt 0.551967 0.340277
vt 0.557742 0.351082
vt 0.561299 0.387193
vn 0.0000 1.0000 0.0000
vn 0.0000 0.0000 1.0000
vn -1.0000 0.0000 0.0000
vn 0.0000 -1.0000 0.0000
vn 1.0000 0.0000 0.0000
vn 0.0000 0.0000 -1.0000
vn -0.9952 0.0980 0.0000
vn -0.7730 0.6344 0.0000
vn -0.8819 0.4714 0.0000
vn 0.9952 -0.0980 0.0000
vn -0.9569 -0.2903 -0.0000
vn -0.9952 -0.0980 -0.0000
vn -0.7730 -0.6344 -0.0000
vn 0.0980 -0.9952 -0.0000
vn 0.0980 0.9952 0.0000
vn 0.8819 -0.4714 -0.0000
vn -0.0980 0.9952 0.0000
vn 0.2903 -0.9569 -0.0000
vn -0.6344 -0.7730 -0.0000
vn 0.4714 0.8819 0.0000
vn -0.4714 -0.8819 0.0000
vn -0.6344 0.7730 0.0000
vn 0.6344 -0.7730 -0.0000
vn 0.9569 -0.2903 -0.0000
vn 0.6344 0.7730 0.0000
vn -0.4714 0.8819 0.0000
vn 0.8819 0.4714 0.0000
vn -0.0980 -0.9952 -0.0000
vn -0.8819 -0.4714 0.0000
vn 0.9952 0.0980 0.0000
vn -0.9569 0.2903 0.0000
vn 0.2903 0.9569 0.0000
vn 0.4714 -0.8819 -0.0000
vn -0.2903 -0.9569 0.0000
vn 0.9569 0.2903 0.0000
vn -0.2903 0.9569 0.0000
vn 0.7730 -0.6344 -0.0000
vn 0.7730 0.6344 0.0000
s off
f 5/1/1 3/2/1 1/3/1
f 69/4/2 31/5/2 8/6/2
f 7/7/3 6/8/3 8/9/3
f 2/10/4 8/11/4 6/12/4
f 1/3/5 4/13/5 2/10/5
f 70/14/6 56/15/6 2/10/6
f 41/16/7 46/17/7 42/18/7
f 25/19/8 44/20/8 26/21/8
f 43/22/9 40/23/9 44/20/9
f 9/24/10 18/25/10 10/26/10
f 57/27/11 30/28/11 58/29/11
f 45/30/12 58/29/12 46/17/12
f 21/31/13 24/32/13 22/33/13
f 53/34/14 72/35/14 54/36/14
f 31/37/15 70/38/15 32/39/15
f 47/40/16 12/41/16 48/42/16
f 70/38/17 55/43/17 56/44/17
f 71/45/18 52/46/18 72/35/18
f 23/47/19 14/48/19 24/32/19
f 67/49/20 38/50/20 68/51/20
f 13/52/21 16/53/21 14/48/21
f 27/54/22 26/21/22 28/55/22
f 35/56/23 50/57/23 36/58/23
f 11/59/24 10/26/24 12/41/24
f 53/60/2 19/61/2 3/2/2
f 63/62/25 68/51/25 64/63/25
f 59/64/26 28/55/26 60/65/26
f 65/66/27 62/67/27 66/68/27
f 19/69/28 54/70/28 20/71/28
f 29/72/29 22/33/29 30/28/29
f 17/73/30 34/74/30 18/25/30
f 39/75/31 42/18/31 40/23/31
f 37/76/32 32/39/32 38/50/32
f 51/77/33 36/58/33 52/46/33
f 15/78/34 20/71/34 16/53/34
f 33/79/35 66/68/35 34/74/35
f 55/43/36 60/65/36 56/44/36
f 49/80/37 48/42/37 50/57/37
f 54/81/6 72/82/6 5/83/6
f 61/84/38 64/63/38 62/67/38
f 5/1/1 7/85/1 3/2/1
f 4/13/2 3/2/2 45/86/2
f 4/13/2 45/86/2 41/87/2
f 17/88/2 7/89/2 8/6/2
f 33/90/2 17/88/2 8/6/2
f 4/13/2 41/87/2 39/91/2
f 4/13/2 39/91/2 43/92/2
f 65/93/2 33/90/2 8/6/2
f 61/94/2 65/93/2 8/6/2
f 4/13/2 43/92/2 25/95/2
f 4/13/2 25/95/2 27/96/2
f 63/97/2 61/94/2 8/6/2
f 67/98/2 63/97/2 8/6/2
f 4/13/2 27/96/2 59/99/2
f 4/13/2 59/99/2 55/100/2
f 37/101/2 67/98/2 8/6/2
f 31/5/2 37/101/2 8/6/2
f 8/6/2 4/13/2 69/4/2
f 4/13/2 55/100/2 69/4/2
f 7/7/3 5/83/3 6/8/3
f 2/10/4 4/13/4 8/11/4
f 1/3/5 3/2/5 4/13/5
f 6/8/6 5/83/6 18/102/6
f 6/8/6 18/102/6 34/103/6
f 46/104/6 1/3/6 2/10/6
f 42/105/6 46/104/6 2/10/6
f 6/8/6 34/103/6 66/106/6
f 6/8/6 66/106/6 62/107/6
f 40/108/6 42/105/6 2/10/6
f 44/109/6 40/108/6 2/10/6
f 6/8/6 62/107/6 64/110/6
f 6/8/6 64/110/6 68/111/6
f 26/112/6 44/109/6 2/10/6
f 28/113/6 26/112/6 2/10/6
f 6/8/6 68/111/6 38/114/6
f 6/8/6 38/114/6 32/115/6
f 60/116/6 28/113/6 2/10/6
f 56/15/6 60/116/6 2/10/6
f 2/10/6 6/8/6 70/14/6
f 6/8/6 32/115/6 70/14/6
f 41/16/7 45/30/7 46/17/7
f 25/19/8 43/22/8 44/20/8
f 43/22/9 39/75/9 40/23/9
f 9/24/10 17/73/10 18/25/10
f 57/27/11 29/72/11 30/28/11
f 45/30/12 57/27/12 58/29/12
f 21/31/13 23/47/13 24/32/13
f 53/34/14 71/45/14 72/35/14
f 31/37/15 69/117/15 70/38/15
f 47/40/16 11/59/16 12/41/16
f 70/38/17 69/117/17 55/43/17
f 71/45/18 51/77/18 52/46/18
f 23/47/19 13/52/19 14/48/19
f 67/49/20 37/76/20 38/50/20
f 13/52/21 15/78/21 16/53/21
f 27/54/22 25/19/22 26/21/22
f 35/56/23 49/80/23 50/57/23
f 11/59/24 9/24/24 10/26/24
f 7/89/2 17/88/2 9/118/2
f 7/89/2 9/118/2 11/119/2
f 57/120/2 45/86/2 3/2/2
f 29/121/2 57/120/2 3/2/2
f 7/89/2 11/119/2 47/122/2
f 7/89/2 47/122/2 49/123/2
f 21/124/2 29/121/2 3/2/2
f 23/125/2 21/124/2 3/2/2
f 7/89/2 49/123/2 35/126/2
f 7/89/2 35/126/2 51/127/2
f 13/128/2 23/125/2 3/2/2
f 15/129/2 13/128/2 3/2/2
f 3/2/2 7/89/2 53/60/2
f 7/89/2 51/127/2 71/130/2
f 7/89/2 71/130/2 53/60/2
f 19/61/2 15/129/2 3/2/2
f 63/62/25 67/49/25 68/51/25
f 59/64/26 27/54/26 28/55/26
f 65/66/27 61/84/27 62/67/27
f 19/69/28 53/131/28 54/70/28
f 29/72/29 21/31/29 22/33/29
f 17/73/30 33/79/30 34/74/30
f 39/75/31 41/16/31 42/18/31
f 37/76/32 31/37/32 32/39/32
f 51/77/33 35/56/33 36/58/33
f 15/78/34 19/69/34 20/71/34
f 33/79/35 65/66/35 66/68/35
f 55/43/36 59/64/36 60/65/36
f 49/80/37 47/40/37 48/42/37
f 1/3/6 46/104/6 58/132/6
f 1/3/6 58/132/6 30/133/6
f 10/134/6 18/102/6 5/83/6
f 12/135/6 10/134/6 5/83/6
f 1/3/6 30/133/6 22/136/6
f 1/3/6 22/136/6 24/137/6
f 48/138/6 12/135/6 5/83/6
f 50/139/6 48/138/6 5/83/6
f 1/3/6 24/137/6 14/140/6
f 1/3/6 14/140/6 16/141/6
f 36/142/6 50/139/6 5/83/6
f 52/143/6 36/142/6 5/83/6
f 5/83/6 1/3/6 54/81/6
f 1/3/6 16/141/6 20/144/6
f 1/3/6 20/144/6 54/81/6
f 72/82/6 52/143/6 5/83/6
f 61/84/38 63/62/38 64/63/38
